<?xml version="1.0" encoding="UTF-8" standalone="no"?>
<!-- Created with Inkscape (http://www.inkscape.org/) -->

<svg
   xmlns:dc="http://purl.org/dc/elements/1.1/"
   xmlns:cc="http://creativecommons.org/ns#"
   xmlns:rdf="http://www.w3.org/1999/02/22-rdf-syntax-ns#"
   xmlns:svg="http://www.w3.org/2000/svg"
   xmlns="http://www.w3.org/2000/svg"
   xmlns:sodipodi="http://sodipodi.sourceforge.net/DTD/sodipodi-0.dtd"
   xmlns:inkscape="http://www.inkscape.org/namespaces/inkscape"
   width="297mm"
   height="210mm"
   viewBox="0 0 297 210"
   version="1.1"
   id="svg8"
   inkscape:version="0.92.4 (5da689c313, 2019-01-14)"
   sodipodi:docname="Vue d'ensemble 1.svg">
  <defs
     id="defs2" />
  <sodipodi:namedview
     id="base"
     pagecolor="#ffffff"
     bordercolor="#666666"
     borderopacity="1.0"
     inkscape:pageopacity="0"
     inkscape:pageshadow="2"
     inkscape:zoom="0.5"
     inkscape:cx="640.03347"
     inkscape:cy="395.9676"
     inkscape:document-units="mm"
     inkscape:current-layer="layer1"
     showgrid="false"
     inkscape:snap-global="false"
     inkscape:window-width="1366"
     inkscape:window-height="705"
     inkscape:window-x="-8"
     inkscape:window-y="-8"
     inkscape:window-maximized="1" />
  <metadata
     id="metadata5">
    <rdf:RDF>
      <cc:Work
         rdf:about="">
        <dc:format>image/svg+xml</dc:format>
        <dc:type
           rdf:resource="http://purl.org/dc/dcmitype/StillImage" />
        <dc:title />
      </cc:Work>
    </rdf:RDF>
  </metadata>
  <g
     inkscape:label="Calque 1"
     inkscape:groupmode="layer"
     id="layer1"
     transform="translate(0,-87)">
    <g
       id="g1144"
       transform="translate(30.956249,68.527082)"
       inkscape:export-filename="D:\Users\Matthieu\Documents\Devoirs Matthieu\ENSTA BZH\Année 2\Stage_Plymouth\Plymouth-WRC\Visuels\Vue d'ensemble 1.png"
       inkscape:export-xdpi="200"
       inkscape:export-ydpi="200">
      <path
         sodipodi:nodetypes="cccccccscsccscccccccccscccsccsccccccscccccssscccccccccscccscccccscccccccccccccsccc"
         inkscape:connector-curvature="0"
         id="path21"
         d="m 57.399336,128.51057 -0.531684,-0.40876 -0.713577,-0.58186 -3.594061,-2.98398 -1.564381,-1.36525 c -0.649025,-0.54063 -0.683969,-0.54959 -0.69368,-0.17776 -0.0021,0.0812 -0.02856,0.16298 -0.05875,0.18163 -0.03451,0.0213 -0.05489,-0.10254 -0.05489,-0.33353 0,-0.32144 -0.01718,-0.38338 -0.137227,-0.49463 -0.07547,-0.0699 -0.137226,-0.16321 -0.137226,-0.20726 0,-0.12242 0.280731,-0.33166 0.552377,-0.4117 0.133944,-0.0395 0.367039,-0.11758 0.517989,-0.1736 0.500908,-0.18587 0.702941,-0.20947 2.122713,-0.24799 l 1.409139,-0.0382 0.03435,-0.14434 c 0.01888,-0.0794 0.04705,-0.18715 0.06258,-0.23946 0.02101,-0.0708 -0.03587,-0.12627 -0.22217,-0.21678 -0.243831,-0.11846 -0.295263,-0.17536 -0.207528,-0.22958 0.02358,-0.0146 0.212112,0.009 0.418955,0.0523 0.249388,0.0523 0.398002,0.0606 0.441158,0.0248 0.03579,-0.0297 0.190521,-0.0809 0.34384,-0.1138 l 0.278763,-0.0598 0.857153,-2.12367 c 0.471434,-1.16803 0.856847,-2.1504 0.856472,-2.18306 -4.11e-4,-0.0327 0.261574,-0.67488 0.582104,-1.42715 0.320532,-0.75228 0.705197,-1.75064 0.854811,-2.21858 0.149611,-0.46794 0.355696,-1.07311 0.457961,-1.34482 0.102266,-0.2717 0.254843,-0.79627 0.339059,-1.16571 0.132042,-0.57923 0.166346,-0.66751 0.249181,-0.64126 0.07369,0.0233 0.09606,-9.1e-4 0.09606,-0.10454 0,-0.0998 0.03743,-0.14437 0.143703,-0.17105 0.07904,-0.0198 0.153137,-0.0266 0.164665,-0.0151 0.02933,0.0293 -0.232519,2.11498 -0.373617,2.97592 -0.06432,0.39246 -0.114084,0.78768 -0.110582,0.87825 0.01307,0.33838 0.119968,4.80684 0.133901,5.59762 l 0.01448,0.82215 0.230451,-0.38303 c 0.126748,-0.21066 0.348688,-0.65473 0.493203,-0.98682 0.260678,-0.59903 0.262904,-0.6092 0.282115,-1.28992 0.01954,-0.69211 -0.363934,-3.92657 -0.461606,-5.14557 -0.02903,-0.36228 -0.139734,-0.94514 -0.169774,-1.33761 -0.03004,-0.39246 -0.06735,-0.8062 -0.08292,-0.91941 -0.02724,-0.19805 -0.278578,-0.11574 -0.121547,-0.11574 0.18317,0 0.401703,-0.1832 0.692336,0.98026 0.635358,2.54346 1.119062,4.13458 1.058502,7.16931 -0.03242,1.62449 -0.19093,4.16068 -0.300182,4.80292 -0.02824,0.16604 -0.06119,0.43775 -0.07321,0.60379 l -0.02185,0.3019 0.483129,0.31704 3.151068,1.35484 1.117715,0.584 c 0.104846,0.23011 -0.103286,1.06715 -0.264218,1.06259 l -1.230721,-0.51665 -2.994152,-1.44328 -0.372609,-0.17839 c -0.130017,-0.0623 -0.194253,0.15628 -0.289733,0.90378 -0.13426,0.8365 0.01403,0.6398 0.518825,0.90161 0,0 0.16668,0.20838 0.329416,0.33392 0.417634,0.3222 0.469078,0.41593 0.407935,0.74321 -0.05203,0.2785 -0.128926,0.37397 -0.268881,0.33382 l -1.262479,-0.59318 -0.741023,-0.34811 -0.658123,-0.31496 -2.146545,-1.01375 -0.780316,-0.42276 c -0.413035,-0.22378 -0.434216,-0.24908 -0.859412,-0.24878 -0.490633,3.9e-4 -0.784262,0.064 -0.963225,0.20895 l -0.119473,0.0967 0.331281,0.23238 c 0.533399,0.37416 1.79258,1.40954 2.853378,2.34622 0.06034,0.0533 0.05883,0.16484 -0.0089,0.65437 -0.04491,0.32458 -0.102624,0.61111 -0.128256,0.63674 l -0.162227,-0.0199 z m 1.474764,-7.38065 c 0.106348,-0.17359 0.260827,-0.45147 0.343284,-0.61752 0.08246,-0.16604 0.205251,-0.37599 0.272874,-0.46657 0.330094,-0.4421 0.316393,-0.26253 0.252452,-3.30878 -0.03209,-1.52869 -0.05834,-2.87722 -0.05834,-2.99674 0,-0.11951 -0.01336,-0.20394 -0.02967,-0.18762 -0.02035,0.0204 -1.001321,7.65371 -1.012559,7.87913 -0.0029,0.0587 0.06612,-0.0312 0.231964,-0.3019 z"
         style="fill:#000000;stroke-width:0.0548905" />
      <text
         id="text317"
         y="131.364"
         x="52.451042"
         style="font-style:normal;font-variant:normal;font-weight:normal;font-stretch:normal;font-size:3.17499995px;line-height:1.25;font-family:Garamond;-inkscape-font-specification:Garamond;text-align:start;text-anchor:start;fill:#000000;fill-opacity:1;fill-rule:evenodd;stroke:none;stroke-width:0.76499999;stroke-miterlimit:4;stroke-dasharray:none;stroke-dashoffset:0;stroke-opacity:0.59215686"
         xml:space="preserve"><tspan
           style="fill:#000000;fill-opacity:1;stroke-width:0.76499999"
           y="131.364"
           x="52.451042"
           id="tspan315"
           sodipodi:role="line">Trimaran</tspan></text>
    </g>
    <g
       id="g1149"
       transform="translate(30.956249,68.527082)"
       inkscape:export-filename="D:\Users\Matthieu\Documents\Devoirs Matthieu\ENSTA BZH\Année 2\Stage_Plymouth\Plymouth-WRC\Visuels\Vue d'ensemble 1.png"
       inkscape:export-xdpi="200"
       inkscape:export-ydpi="200">
      <path
         sodipodi:nodetypes="ccccsscccccccccscsccccsccccccccccccccccccccssccccscssccccccccsccccssccccccccccsccccssccsscccccccsccccccsccsccccccssccc"
         inkscape:connector-curvature="0"
         id="path35"
         d="m 120.39795,108.94049 c -0.0325,-1.9e-4 -0.0818,0.005 -0.13332,0.0152 l -0.14995,0.0292 -0.0768,0.287 c -0.14325,0.46271 -0.4092,1.48666 -0.52999,2.08878 -0.17301,0.86248 -0.90317,5.26585 -1.13424,6.8403 -0.1,0.68108 -0.42486,3.2286 -0.46367,3.6355 l -0.0213,0.22333 -0.21194,0.007 c -0.11655,0.004 -0.2834,0.011 -0.37081,0.0158 l -0.15897,0.009 0.01,-0.73344 c 0.005,-0.40341 0.0175,-0.76573 0.0269,-0.8052 0.0128,-0.0541 0.002,-0.0727 -0.0422,-0.0755 -0.0534,-0.003 -0.0538,-0.005 -0.004,-0.0183 0.0307,-0.008 0.0558,-0.0279 0.0558,-0.0441 0,-0.0163 -0.0251,-0.0312 -0.0558,-0.0333 -0.0532,-0.004 -0.0532,-0.004 0,-0.0183 0.048,-0.0125 0.0562,-0.0577 0.059,-0.32316 0.002,-0.16972 0.009,-0.43414 0.0159,-0.58761 0.0114,-0.24829 0.007,-0.27946 -0.043,-0.28275 -0.0531,-0.004 -0.0531,-0.004 0,-0.0183 0.0482,-0.0126 0.0558,-0.0557 0.0558,-0.31522 0,-0.21871 -0.0109,-0.30085 -0.0399,-0.30158 -0.0248,-5.9e-4 -0.0209,-0.0121 0.0105,-0.0304 0.0402,-0.0235 0.0519,-0.0995 0.0578,-0.37744 l 0.007,-0.34801 -0.1335,-0.0534 c -0.0418,-0.0167 -0.0974,-0.0306 -0.1122,-0.0358 l 3.0988,-8.70498 c -0.0503,0.10142 -3.02859,8.40521 -3.09993,8.70453 -0.0192,-0.004 -0.0326,-0.005 -0.0362,-0.001 -0.0404,0.0404 -0.23056,0.54835 -0.21778,0.58167 0.008,0.0206 -0.008,0.0463 -0.036,0.0569 -0.0277,0.0106 -0.0413,0.0284 -0.0302,0.0396 0.0111,0.0111 0.007,0.0359 -0.009,0.0551 -0.0159,0.0191 -0.0735,0.14964 -0.12822,0.28995 -0.0547,0.14032 -0.11318,0.28379 -0.13001,0.31887 -0.10213,0.21287 -0.37499,0.909 -0.35646,0.90936 0.0122,2e-4 8.2e-4,0.014 -0.0254,0.0306 -0.0409,0.0259 -0.0387,0.0373 0.0159,0.0809 0.0635,0.0506 0.0635,0.0507 -6.1e-4,0.0334 -0.0571,-0.0154 -0.0918,0.0486 -0.31092,0.57364 -0.13566,0.32504 -0.2467,0.61192 -0.2467,0.63754 0,0.0256 -0.0143,0.0466 -0.0319,0.0466 -0.0175,0 -0.0297,0.0108 -0.0271,0.0239 0.005,0.0235 -0.0152,0.0718 -0.25412,0.61385 l -0.11949,0.27108 -0.25412,0.0197 c -0.13976,0.0108 -0.62,0.0368 -1.06725,0.0576 -0.44725,0.0209 -0.84845,0.048 -0.89152,0.0603 -0.0814,0.0232 -0.2884,0.2668 -0.2884,0.33932 0,0.0271 0.0809,0.0535 0.23342,0.0762 0.31828,0.0473 1.27966,0.15733 1.63869,0.18751 l 0.29364,0.0247 -0.17695,0.40351 c 0.0904,0.94479 0.22958,0.84027 1.24799,1.38364 0.73665,0.2769 1.41826,0.51959 1.51472,0.5393 l 0.17541,0.0359 0.009,0.38935 c 0.007,0.29988 -3.9e-4,0.38943 -0.0319,0.3895 -0.0225,4e-5 -0.866,0.058 -1.87451,0.12878 -1.0085,0.0708 -2.12324,0.13914 -2.47719,0.15178 -0.73099,0.0261 -0.71879,0.0216 -0.88348,0.32423 l -0.0845,0.15518 0.0882,0.0179 c 0.24783,0.0502 1.47017,0.19323 1.92186,0.22492 0.14908,0.0105 0.4648,0.033 0.70158,0.05 0.36645,0.0264 1.32171,0.0495 3.04548,0.0738 l 1.6549,-0.0214 c 0.45785,-0.0115 1.08688,-0.0303 1.39785,-0.0419 l 1.84647,-0.0748 c 0.14815,0 0.20715,-0.0137 0.24151,-0.0558 0.0411,-0.0504 0.0434,-0.0465 0.0246,0.0399 -0.0115,0.0526 -0.0282,0.31875 -0.0372,0.59139 0.15398,1.35349 0.15192,0.80072 0.31807,-0.14491 0.0527,-0.29816 0.10638,-0.54931 0.11921,-0.55808 0.0128,-0.009 0.0333,-0.0756 0.0455,-0.14845 0.0257,-0.1538 -0.0434,-0.26613 -0.16382,-0.26613 -0.0394,0 -0.12107,-0.0236 -0.18158,-0.0525 -0.0824,-0.0393 -0.1149,-0.0785 -0.12949,-0.15625 l -0.0195,-0.10384 -0.39776,-0.0229 c -0.35395,-0.0204 -0.39776,-0.0293 -0.39776,-0.0806 0,-0.0317 -0.0282,-0.39952 -0.0627,-0.81734 -0.0345,-0.41782 -0.0704,-0.87449 -0.0797,-1.0148 -0.009,-0.14031 -0.0312,-0.40469 -0.0487,-0.58751 -0.0174,-0.18282 -0.0278,-0.33625 -0.0231,-0.34096 0.007,-0.007 0.59385,-0.13981 0.61932,-0.13981 0.005,0 0.009,0.14352 0.009,0.31891 0.18661,1.15565 0.18854,0.24773 0.29055,-0.40944 0.0458,-0.29221 0.0996,-0.57173 0.11959,-0.6211 0.0479,-0.11831 0.0462,-0.2614 -0.003,-0.30046 -0.0672,-0.0528 -0.24865,-0.0736 -0.31793,-0.0365 -0.0643,0.0344 -0.0652,0.0302 -0.0455,-0.21554 0.0285,-0.35473 0.0325,-0.92314 0.007,-0.96486 -0.0119,-0.0194 -0.008,-0.0352 0.008,-0.0352 0.0176,0 0.0386,-0.31606 0.0503,-0.75741 0.011,-0.41656 0.0256,-0.81117 0.0324,-0.87694 l -0.0206,-0.27491 c 0.0343,-0.0215 0.10318,-2.29148 0.10291,-3.3924 -9e-5,-0.5771 -0.005,-0.63009 -0.056,-0.63348 -0.0513,-0.003 -0.0514,-0.005 -0.001,-0.018 0.0498,-0.0131 0.0545,-0.1066 0.0564,-1.12836 0.002,-0.88017 -0.006,-1.11422 -0.0384,-1.11458 -0.0299,-3.9e-4 -0.0289,-0.008 0.004,-0.0285 0.0438,-0.0277 0.034,-0.44514 -0.0474,-2.01189 -0.0326,-0.62845 -0.10191,-1.21985 -0.14622,-1.24794 -0.0348,-0.0221 -0.0348,-0.0268 0,-0.0271 0.0253,-1.9e-4 0.038,-0.0291 0.0319,-0.0723 -0.008,-0.0576 -0.0321,-0.0727 -0.12183,-0.0765 -0.0614,-0.003 -0.53494,-0.0577 -1.05235,-0.12239 -0.51741,-0.0647 -1.01605,-0.11676 -1.10813,-0.1158 -0.0921,9.8e-4 -0.16742,-0.0121 -0.16742,-0.0291 0,-0.017 0.0341,-0.0309 0.0758,-0.0309 0.0782,0 0.1723,-0.0814 0.13599,-0.11772 -0.004,-0.004 -0.0177,-0.006 -0.0372,-0.006 z"
         style="fill:#000000;stroke-width:0.03188951" />
      <text
         id="text1126"
         y="131.33299"
         x="111.17242"
         style="font-style:normal;font-variant:normal;font-weight:normal;font-stretch:normal;font-size:3.17499995px;line-height:1.25;font-family:Garamond;-inkscape-font-specification:Garamond;text-align:start;text-anchor:start;fill:#000000;fill-opacity:1;fill-rule:evenodd;stroke:none;stroke-width:0.76499999;stroke-miterlimit:4;stroke-dasharray:none;stroke-dashoffset:0;stroke-opacity:0.59215686"
         xml:space="preserve"><tspan
           style="stroke-width:0.76499999"
           y="131.33299"
           x="111.17242"
           id="tspan1124"
           sodipodi:role="line">Catamaran</tspan></text>
    </g>
    <g
       id="g1154"
       transform="translate(30.956249,68.527082)"
       inkscape:export-filename="D:\Users\Matthieu\Documents\Devoirs Matthieu\ENSTA BZH\Année 2\Stage_Plymouth\Plymouth-WRC\Visuels\Vue d'ensemble 1.png"
       inkscape:export-xdpi="200"
       inkscape:export-ydpi="200">
      <path
         sodipodi:nodetypes="ccccccccccccccccccccccccccccccccccccccccccccccccccccccccccc"
         inkscape:connector-curvature="0"
         id="path298"
         d="m 175.73266,127.95558 c -0.63316,-0.98697 -0.36612,0.60006 -0.66401,0.0197 0.0517,-0.53922 0.17857,-0.89552 -0.18059,-1.23898 0.0455,-0.58913 0.0684,-0.99329 0.8703,-1.06624 0.19976,-6.29592 0.90784,-13.19474 2.44384,-16.56055 0.37406,-0.3561 1.35495,-0.0201 1.89326,-0.13705 0.45188,-0.0145 0.71596,-0.0275 0.80531,0.31774 0.0113,0.19875 0.18378,0.50346 0.20889,0.60137 l 5.58686,14.4257 c 0.36344,0.68542 -0.52838,0.61108 -0.70058,1.04625 -0.27278,0.37277 0.0404,0.31605 -0.61089,0.54745 l -3.35751,1.20712 -1.19377,0.3685 c -4.36788,1.11102 -3.84581,1.44087 -5.10111,0.46895 z m 5.2005,-2.824 c 0.5708,-0.084 -0.72159,-0.2865 -0.19662,-0.13222 -0.38619,0.0755 3.9e-4,0.25713 0.19662,0.13222 z m 0.59087,-0.23293 c 0.0791,-0.40314 -1.48317,0.0383 -0.49629,0.0877 0.15943,0.0442 0.58472,0.23082 0.49629,-0.0877 z m -0.43549,0.0405 c 0.26959,-0.0406 0.0527,0.0414 0,0 z m 0.24352,-0.0271 c 0.23697,-0.0393 0.049,0.0417 0,0 z m 0.66849,0.10234 c 0.37829,0.0714 1.25228,-0.27274 0.4508,-0.2056 -0.52906,0.0465 0.84001,-0.1047 0.0694,-0.0835 -0.30235,-0.084 -1.49893,0.11456 -0.55788,0.12083 0.25029,-0.0787 -0.85013,0.17921 -0.15986,0.19102 l 0.0962,-0.0114 0.10136,-0.0113 z m 1.01859,-0.17707 c -0.26315,-0.25832 -0.0502,0.34346 0,0 z m 0.97431,0.0218 c 0.39151,-0.36921 -1.67006,0.0686 -0.5798,0.0368 0.19341,-0.009 0.38705,-0.0178 0.5798,-0.0368 z m 0.60889,-0.0766 c -0.4169,-0.25687 -0.62276,0.21038 -0.0278,0.0462 l 0.0262,-0.0165 z m 0.46265,0.004 c 0.28246,-0.17006 -0.74865,-0.0258 -0.27411,0.0274 -0.26575,0.0607 0.27308,0.002 0.27411,-0.0274 z m -0.12524,-0.009 c 0.2222,-0.0335 -0.0314,0.0464 0,0 z m 0.48589,0.0284 c 0.35436,-0.19778 -0.56126,0.0638 0,0 z m 1.14161,-0.14997 c 0.13739,-0.4182 -4.10122,-11.01234 -5.59512,-14.79738 0.69098,2.25612 1.43882,4.50244 2.16994,6.7486 0.83852,2.61394 1.67298,5.24099 2.54431,7.84543 0.32489,0.0849 0.38886,0.14682 0.33472,0.27744 0.12345,-0.0158 0.42258,-0.0593 0.54615,-0.0741 z m -5.65382,-14.7521 c -0.10085,-0.39689 -0.21979,-0.56326 -0.14371,-0.01 0.56173,1.64336 1.00034,3.33588 1.54918,4.98803 0.65289,1.99894 1.27768,4.01711 2.03085,5.97711 2.65101,7.39826 -3.2496,-10.38792 -3.43632,-10.95548 z"
         style="fill:#000000;stroke-width:0.02702246" />
      <text
         id="text1130"
         y="131.36555"
         x="174.76215"
         style="font-style:normal;font-variant:normal;font-weight:normal;font-stretch:normal;font-size:3.17499995px;line-height:1.25;font-family:Garamond;-inkscape-font-specification:Garamond;text-align:start;text-anchor:start;fill:#000000;fill-opacity:1;fill-rule:evenodd;stroke:none;stroke-width:0.76499999;stroke-miterlimit:4;stroke-dasharray:none;stroke-dashoffset:0;stroke-opacity:0.59215686"
         xml:space="preserve"><tspan
           style="stroke-width:0.76499999"
           y="131.36555"
           x="174.76215"
           id="tspan1128"
           sodipodi:role="line">Monohull</tspan></text>
    </g>
    <g
       id="g1139"
       transform="translate(25.381717,65.352082)"
       inkscape:export-filename="D:\Users\Matthieu\Documents\Devoirs Matthieu\ENSTA BZH\Année 2\Stage_Plymouth\Plymouth-WRC\Visuels\Vue d'ensemble 1.png"
       inkscape:export-xdpi="200"
       inkscape:export-ydpi="200">
      <path
         inkscape:connector-curvature="0"
         id="path313"
         d="m 120.77818,198.91346 c -0.10403,-0.042 -0.0584,-0.0906 0.068,-0.0724 0.0686,0.01 0.17579,-0.003 0.23816,-0.0288 0.10106,-0.0416 0.0926,-0.0456 -0.0772,-0.0371 -0.10484,0.005 -0.1893,-0.0109 -0.18769,-0.0358 0.002,-0.025 0.52496,-0.21596 1.163,-0.42446 0.87475,-0.28586 1.14128,-0.38963 1.08364,-0.42188 -0.0973,-0.0545 -0.0966,-0.10871 0.003,-0.20891 0.0436,-0.044 0.13566,-0.24063 0.20444,-0.43704 l 0.12504,-0.35712 -0.76015,0.0298 c -0.41808,0.0164 -1.29091,0.0502 -1.93962,0.075 -0.64871,0.0249 -1.60432,0.0656 -2.12358,0.0906 -0.51926,0.025 -0.96103,0.035 -0.9817,0.0222 -0.0401,-0.0248 -0.0593,-0.49937 -0.16195,-4.01609 -0.0361,-1.23504 -0.0791,-2.6283 -0.0956,-3.09612 l -0.0301,-0.85058 0.44891,2e-4 c 0.2469,1.3e-4 0.88781,0.0204 1.42424,0.045 1.12317,0.0515 4.78388,0.19075 7.84803,0.2986 1.1602,0.0409 2.12248,0.0873 2.13841,0.10333 0.0159,0.016 0.0522,0.48842 0.0807,1.0498 0.0284,0.56138 0.10211,1.96995 0.16369,3.13014 0.0616,1.1602 0.11204,2.23703 0.11212,2.39297 l 1.3e-4,0.28351 h -0.36016 c -0.19813,0 -0.37306,0.0207 -0.38873,0.0461 -0.0156,0.0254 -0.0475,0.0343 -0.0707,0.02 -0.0233,-0.0144 -0.0422,-0.007 -0.0422,0.0161 0,0.0233 -0.19843,0.046 -0.44096,0.0505 -0.24254,0.005 -0.45178,0.0198 -0.46499,0.034 -0.0132,0.0142 0.38426,0.0111 0.88327,-0.007 0.49901,-0.0179 0.89406,-0.0191 0.87789,-0.002 -0.0444,0.0454 -0.34724,0.0649 -1.78518,0.11527 -2.55912,0.0896 -3.72023,0.14326 -3.74967,0.17332 -0.0446,0.0455 -0.21971,0.6607 -0.21971,0.77162 0,0.0634 0.0348,0.10346 0.10207,0.11723 0.0861,0.0177 1.3227,0.11183 3.10887,0.23678 0.39078,0.0274 0.55212,0.0781 0.40975,0.12884 -0.0328,0.0117 -0.87181,-0.0139 -1.86453,-0.057 -0.99271,-0.043 -1.83681,-0.0671 -1.87577,-0.0534 -0.0662,0.0232 3.10633,0.18328 3.57865,0.18054 0.11851,-5e-4 0.21548,0.0192 0.21548,0.0441 0,0.0565 0.0398,0.057 -1.6558,-0.0229 -2.21963,-0.10454 -1.95891,-0.12795 -3.53973,0.31773 -0.75224,0.21208 -1.3761,0.38399 -1.38635,0.38202 -0.0102,-0.002 -0.0442,-0.0138 -0.0753,-0.0264 z"
         style="fill:#000000;stroke-width:0.04536436" />
      <text
         id="text1134"
         y="203.82985"
         x="111.87903"
         style="font-style:normal;font-variant:normal;font-weight:normal;font-stretch:normal;font-size:3.17499995px;line-height:1.25;font-family:Garamond;-inkscape-font-specification:Garamond;text-align:start;text-anchor:start;fill:#000000;fill-opacity:1;fill-rule:evenodd;stroke:none;stroke-width:0.76499999;stroke-miterlimit:4;stroke-dasharray:none;stroke-dashoffset:0;stroke-opacity:0.59215686"
         xml:space="preserve"><tspan
           style="stroke-width:0.76499999"
           y="203.82985"
           x="111.87903"
           id="tspan1132"
           sodipodi:role="line">Control Computer</tspan></text>
    </g>
    <rect
       style="fill:#000000;fill-opacity:1;fill-rule:evenodd;stroke:none;stroke-width:0.44852099;stroke-miterlimit:4;stroke-dasharray:none;stroke-dashoffset:0;stroke-opacity:0.59215686"
       id="rect1156"
       width="157.95625"
       height="0.72760403"
       x="69.817574"
       y="170.70264"
       ry="0"
       inkscape:export-filename="D:\Users\Matthieu\Documents\Devoirs Matthieu\ENSTA BZH\Année 2\Stage_Plymouth\Plymouth-WRC\Visuels\Vue d'ensemble 1.png"
       inkscape:export-xdpi="200"
       inkscape:export-ydpi="200" />
    <path
       style="fill:#000000;fill-opacity:1;fill-rule:evenodd;stroke:none;stroke-width:0.13304521;stroke-miterlimit:4;stroke-dasharray:none;stroke-dashoffset:0;stroke-opacity:0.59215686"
       d="m 146.83158,162.60549 h 1.40576 v 8.26384 h 1.11672 v -8.26384 h 1.40576 l -1.9642,-3.69893 z"
       id="rect1156-6"
       inkscape:connector-curvature="0"
       inkscape:export-filename="D:\Users\Matthieu\Documents\Devoirs Matthieu\ENSTA BZH\Année 2\Stage_Plymouth\Plymouth-WRC\Visuels\Vue d'ensemble 1.png"
       inkscape:export-xdpi="200"
       inkscape:export-ydpi="200" />
    <text
       xml:space="preserve"
       style="font-style:normal;font-variant:normal;font-weight:normal;font-stretch:normal;font-size:3.17499995px;line-height:1.25;font-family:Garamond;-inkscape-font-specification:Garamond;text-align:start;text-anchor:start;fill:#000000;fill-opacity:1;fill-rule:evenodd;stroke:none;stroke-width:0.76499999;stroke-miterlimit:4;stroke-dasharray:none;stroke-dashoffset:0;stroke-opacity:0.59215686"
       x="139.32109"
       y="154.38959"
       id="text1194"
       inkscape:export-filename="D:\Users\Matthieu\Documents\Devoirs Matthieu\ENSTA BZH\Année 2\Stage_Plymouth\Plymouth-WRC\Visuels\Vue d'ensemble 1.png"
       inkscape:export-xdpi="200"
       inkscape:export-ydpi="200"><tspan
         sodipodi:role="line"
         id="tspan1192"
         x="139.32109"
         y="154.38959"
         style="stroke-width:0.76499999">Forward sailing</tspan></text>
    <text
       xml:space="preserve"
       style="font-style:normal;font-variant:normal;font-weight:normal;font-stretch:normal;font-size:3.17499995px;line-height:1.25;font-family:Garamond;-inkscape-font-specification:Garamond;text-align:start;text-anchor:start;fill:#000000;fill-opacity:1;fill-rule:evenodd;stroke:none;stroke-width:0.76499999;stroke-miterlimit:4;stroke-dasharray:none;stroke-dashoffset:0;stroke-opacity:0.59215686"
       x="140.06989"
       y="147.02858"
       id="text1198"
       inkscape:export-filename="D:\Users\Matthieu\Documents\Devoirs Matthieu\ENSTA BZH\Année 2\Stage_Plymouth\Plymouth-WRC\Visuels\Vue d'ensemble 1.png"
       inkscape:export-xdpi="200"
       inkscape:export-ydpi="200"><tspan
         sodipodi:role="line"
         id="tspan1196"
         x="140.06989"
         y="147.02858"
         style="stroke-width:0.76499999">Cap following</tspan></text>
    <text
       xml:space="preserve"
       style="font-style:normal;font-variant:normal;font-weight:normal;font-stretch:normal;font-size:3.17499995px;line-height:1.25;font-family:Garamond;-inkscape-font-specification:Garamond;text-align:start;text-anchor:start;fill:#000000;fill-opacity:1;fill-rule:evenodd;stroke:none;stroke-width:0.76499999;stroke-miterlimit:4;stroke-dasharray:none;stroke-dashoffset:0;stroke-opacity:0.59215686"
       x="136.79333"
       y="139.67455"
       id="text1202"
       inkscape:export-filename="D:\Users\Matthieu\Documents\Devoirs Matthieu\ENSTA BZH\Année 2\Stage_Plymouth\Plymouth-WRC\Visuels\Vue d'ensemble 1.png"
       inkscape:export-xdpi="200"
       inkscape:export-ydpi="200"><tspan
         sodipodi:role="line"
         id="tspan1200"
         x="136.79333"
         y="139.67455"
         style="stroke-width:0.76499999">Waypoint following</tspan></text>
    <text
       xml:space="preserve"
       style="font-style:normal;font-variant:normal;font-weight:normal;font-stretch:normal;font-size:3.17499995px;line-height:1.25;font-family:Garamond;-inkscape-font-specification:Garamond;text-align:start;text-anchor:start;fill:#000000;fill-opacity:1;fill-rule:evenodd;stroke:none;stroke-width:0.76499999;stroke-miterlimit:4;stroke-dasharray:none;stroke-dashoffset:0;stroke-opacity:0.59215686"
       x="139.81175"
       y="132.32054"
       id="text1206"
       inkscape:export-filename="D:\Users\Matthieu\Documents\Devoirs Matthieu\ENSTA BZH\Année 2\Stage_Plymouth\Plymouth-WRC\Visuels\Vue d'ensemble 1.png"
       inkscape:export-xdpi="200"
       inkscape:export-ydpi="200"><tspan
         sodipodi:role="line"
         id="tspan1204"
         x="139.81175"
         y="132.32054"
         style="stroke-width:0.76499999">Path following</tspan></text>
    <text
       xml:space="preserve"
       style="font-style:normal;font-variant:normal;font-weight:normal;font-stretch:normal;font-size:3.17499995px;line-height:1.25;font-family:Garamond;-inkscape-font-specification:Garamond;text-align:start;text-anchor:start;fill:#000000;fill-opacity:1;fill-rule:evenodd;stroke:none;stroke-width:0.76499999;stroke-miterlimit:4;stroke-dasharray:none;stroke-dashoffset:0;stroke-opacity:0.59215686"
       x="138.41803"
       y="124.9735"
       id="text1210"
       inkscape:export-filename="D:\Users\Matthieu\Documents\Devoirs Matthieu\ENSTA BZH\Année 2\Stage_Plymouth\Plymouth-WRC\Visuels\Vue d'ensemble 1.png"
       inkscape:export-xdpi="200"
       inkscape:export-ydpi="200"><tspan
         sodipodi:role="line"
         id="tspan1208"
         x="138.41803"
         y="124.9735"
         style="stroke-width:0.76499999">Target avoidance</tspan></text>
    <path
       style="fill:#000000;fill-opacity:1;fill-rule:evenodd;stroke:none;stroke-width:0.15333416;stroke-miterlimit:4;stroke-dasharray:none;stroke-dashoffset:0;stroke-opacity:0.59215686"
       d="m 148.79246,213.85944 -1.96422,4.91339 h 1.40612 v 7.29878 h 1.11621 v -7.29878 h 1.40612 z m -0.5581,21.64105 v 4.4943 h -1.40612 l 1.96422,4.91288 1.96423,-4.91288 h -1.40612 v -4.4943 z"
       id="rect1156-6-6"
       inkscape:export-xdpi="200"
       inkscape:export-ydpi="200"
       inkscape:connector-curvature="0" />
    <path
       style="fill:#000000;fill-opacity:1;fill-rule:evenodd;stroke:none;stroke-width:0.15784125;stroke-miterlimit:4;stroke-dasharray:none;stroke-dashoffset:0;stroke-opacity:0.59215686"
       d="m 121.43445,219.24567 0.7829,5.79086 1.09657,-1.23868 1.29604,2.27376 h 1.43092 l -1.85621,-3.25665 1.09657,-1.23868 z m 8.54986,16.25482 3.32796,5.83789 -1.09709,1.23868 3.8468,2.33061 -0.78238,-5.79086 -1.09658,1.23868 -2.76727,-4.855 z"
       id="rect1156-6-6-1"
       inkscape:export-xdpi="200"
       inkscape:export-ydpi="200"
       inkscape:connector-curvature="0" />
    <path
       style="fill:#000000;fill-opacity:1;fill-rule:evenodd;stroke:none;stroke-width:0.15784125;stroke-miterlimit:4;stroke-dasharray:none;stroke-dashoffset:0;stroke-opacity:0.59215686"
       d="m 176.15669,219.24567 -3.8468,2.33061 1.09709,1.23868 -1.85673,3.25665 h 1.43092 l 1.29604,-2.27376 1.09709,1.23868 z m -9.98079,16.25482 -2.76727,4.855 -1.09658,-1.23868 -0.78289,5.79086 3.84679,-2.33061 -1.09657,-1.23868 3.32796,-5.83789 z"
       id="path4970"
       inkscape:export-xdpi="200"
       inkscape:export-ydpi="200"
       inkscape:connector-curvature="0" />
    <text
       xml:space="preserve"
       style="font-style:normal;font-variant:normal;font-weight:normal;font-stretch:normal;font-size:3.17499995px;line-height:1.25;font-family:Garamond;-inkscape-font-specification:Garamond;text-align:start;text-anchor:start;fill:#000000;fill-opacity:1;fill-rule:evenodd;stroke:none;stroke-width:0.26499999;stroke-miterlimit:4;stroke-dasharray:0.79499999, 0.79499999;stroke-dashoffset:0;stroke-opacity:1"
       x="148.76068"
       y="229.77681"
       id="text4990"
       inkscape:export-filename="D:\Users\Matthieu\Documents\Devoirs Matthieu\ENSTA BZH\Année 2\Stage_Plymouth\Plymouth-WRC\Visuels\Vue d'ensemble 1.png"
       inkscape:export-xdpi="200"
       inkscape:export-ydpi="200"><tspan
         sodipodi:role="line"
         id="tspan4988"
         x="148.76068"
         y="229.77681"
         style="text-align:center;text-anchor:middle;fill:#000000;fill-opacity:1;stroke-width:0.26499999">Range: Up to 500 m</tspan><tspan
         sodipodi:role="line"
         x="148.76068"
         y="233.74556"
         style="text-align:center;text-anchor:middle;fill:#000000;fill-opacity:1;stroke-width:0.26499999"
         id="tspan5054">Communication: XBee Module</tspan></text>
    <text
       xml:space="preserve"
       style="font-style:normal;font-variant:normal;font-weight:normal;font-stretch:normal;font-size:3.17499995px;line-height:1.25;font-family:Garamond;-inkscape-font-specification:Garamond;text-align:start;text-anchor:start;fill:#000000;fill-opacity:1;fill-rule:evenodd;stroke:none;stroke-width:0.26499999;stroke-miterlimit:4;stroke-dasharray:0.79499999, 0.79499999;stroke-dashoffset:0;stroke-opacity:1"
       x="148.83136"
       y="208.89369"
       id="text4994"
       inkscape:export-filename="D:\Users\Matthieu\Documents\Devoirs Matthieu\ENSTA BZH\Année 2\Stage_Plymouth\Plymouth-WRC\Visuels\Vue d'ensemble 1.png"
       inkscape:export-xdpi="200"
       inkscape:export-ydpi="200"><tspan
         sodipodi:role="line"
         id="tspan4992"
         x="149.22824"
         y="208.89369"
         style="text-align:center;text-anchor:middle;stroke-width:0.26499999">Out: position &amp; video </tspan><tspan
         sodipodi:role="line"
         x="148.83136"
         y="212.86244"
         style="text-align:center;text-anchor:middle;stroke-width:0.26499999"
         id="tspan4996">In: position of target &amp; obstacles</tspan></text>
    <text
       xml:space="preserve"
       style="font-style:normal;font-variant:normal;font-weight:normal;font-stretch:normal;font-size:3.17499995px;line-height:1.25;font-family:Garamond;-inkscape-font-specification:Garamond;text-align:center;text-anchor:middle;fill:#000000;fill-opacity:1;fill-rule:evenodd;stroke:none;stroke-width:0.26499999;stroke-miterlimit:4;stroke-dasharray:0.79499999, 0.79499999;stroke-dashoffset:0;stroke-opacity:1"
       x="148.76857"
       y="117.6125"
       id="text5000"
       inkscape:export-filename="D:\Users\Matthieu\Documents\Devoirs Matthieu\ENSTA BZH\Année 2\Stage_Plymouth\Plymouth-WRC\Visuels\Vue d'ensemble 1.png"
       inkscape:export-xdpi="200"
       inkscape:export-ydpi="200"><tspan
         sodipodi:role="line"
         id="tspan4998"
         x="148.76857"
         y="117.6125"
         style="stroke-width:0.26499999">Platooning, fleet control</tspan></text>
    <path
       style="fill:#000000;fill-opacity:1;fill-rule:evenodd;stroke:none;stroke-width:0.13304521;stroke-miterlimit:4;stroke-dasharray:none;stroke-dashoffset:0;stroke-opacity:0.59215686"
       d="m 62.078297,189.92318 v 1.40576 h -8.26384 v 1.11672 h 8.26384 v 1.40576 l 3.69893,-1.9642 z"
       id="rect1156-6-63"
       inkscape:connector-curvature="0"
       inkscape:export-filename="D:\Users\Matthieu\Documents\Devoirs Matthieu\ENSTA BZH\Année 2\Stage_Plymouth\Plymouth-WRC\Visuels\Vue d'ensemble 1.png"
       inkscape:export-xdpi="200"
       inkscape:export-ydpi="200" />
    <text
       xml:space="preserve"
       style="font-style:normal;font-variant:normal;font-weight:normal;font-stretch:normal;font-size:3.17499995px;line-height:1.25;font-family:Garamond;-inkscape-font-specification:Garamond;text-align:center;text-anchor:middle;fill:#000000;fill-opacity:1;fill-rule:evenodd;stroke:none;stroke-width:0.26499999;stroke-miterlimit:4;stroke-dasharray:0.79499999, 0.79499999;stroke-dashoffset:0;stroke-opacity:1"
       x="36.777081"
       y="182.96458"
       id="text5019"
       inkscape:export-filename="D:\Users\Matthieu\Documents\Devoirs Matthieu\ENSTA BZH\Année 2\Stage_Plymouth\Plymouth-WRC\Visuels\Vue d'ensemble 1.png"
       inkscape:export-xdpi="200"
       inkscape:export-ydpi="200"><tspan
         sodipodi:role="line"
         id="tspan5017"
         x="36.777081"
         y="182.96458"
         style="stroke-width:0.26499999">Sensors:</tspan><tspan
         sodipodi:role="line"
         x="36.777081"
         y="186.93333"
         style="stroke-width:0.26499999"
         id="tspan5021">Wind sensor</tspan><tspan
         sodipodi:role="line"
         x="36.777081"
         y="190.90208"
         style="stroke-width:0.26499999"
         id="tspan5023">Weather vane</tspan><tspan
         sodipodi:role="line"
         x="36.777081"
         y="194.87083"
         style="stroke-width:0.26499999"
         id="tspan5025">GPS</tspan><tspan
         sodipodi:role="line"
         x="36.777081"
         y="198.83958"
         style="stroke-width:0.26499999"
         id="tspan5027">AMU</tspan><tspan
         sodipodi:role="line"
         x="36.777081"
         y="202.80833"
         style="stroke-width:0.26499999"
         id="tspan5029">Camera</tspan></text>
    <path
       style="fill:#000000;fill-opacity:1;fill-rule:evenodd;stroke:none;stroke-width:0.13304521;stroke-miterlimit:4;stroke-dasharray:none;stroke-dashoffset:0;stroke-opacity:0.59215686"
       d="m 246.24609,189.92318 v 1.40576 h -8.26384 v 1.11672 h 8.26384 v 1.40576 l 3.69892,-1.9642 z"
       id="rect1156-6-63-4"
       inkscape:connector-curvature="0"
       inkscape:export-filename="D:\Users\Matthieu\Documents\Devoirs Matthieu\ENSTA BZH\Année 2\Stage_Plymouth\Plymouth-WRC\Visuels\Vue d'ensemble 1.png"
       inkscape:export-xdpi="200"
       inkscape:export-ydpi="200" />
    <text
       xml:space="preserve"
       style="font-style:normal;font-variant:normal;font-weight:normal;font-stretch:normal;font-size:3.17499995px;line-height:1.25;font-family:Garamond;-inkscape-font-specification:Garamond;text-align:center;text-anchor:middle;fill:#000000;fill-opacity:1;fill-rule:evenodd;stroke:none;stroke-width:0.26499999;stroke-miterlimit:4;stroke-dasharray:0.79499999, 0.79499999;stroke-dashoffset:0;stroke-opacity:1"
       x="264.72501"
       y="188.93399"
       id="text5048"
       inkscape:export-filename="D:\Users\Matthieu\Documents\Devoirs Matthieu\ENSTA BZH\Année 2\Stage_Plymouth\Plymouth-WRC\Visuels\Vue d'ensemble 1.png"
       inkscape:export-xdpi="200"
       inkscape:export-ydpi="200"><tspan
         sodipodi:role="line"
         id="tspan5046"
         x="264.72501"
         y="188.93399"
         style="stroke-width:0.26499999">Actuators:</tspan><tspan
         sodipodi:role="line"
         x="264.72501"
         y="192.90274"
         style="stroke-width:0.26499999"
         id="tspan5050">Rudder</tspan><tspan
         sodipodi:role="line"
         x="264.72501"
         y="196.87149"
         style="stroke-width:0.26499999"
         id="tspan5052">Sail</tspan></text>
    <path
       style="fill:none;stroke:#000000;stroke-width:0.26469076;stroke-linecap:butt;stroke-linejoin:miter;stroke-miterlimit:4;stroke-dasharray:0.79407225, 0.79407225;stroke-dashoffset:0;stroke-opacity:1"
       d="m 122.13926,225.99813 53.25831,-0.16629"
       id="path94"
       inkscape:connector-curvature="0"
       sodipodi:nodetypes="cc"
       inkscape:export-xdpi="200"
       inkscape:export-ydpi="200" />
    <path
       sodipodi:nodetypes="cc"
       inkscape:connector-curvature="0"
       id="path906"
       d="m 122.13926,235.72164 53.25831,-0.16629"
       style="fill:none;stroke:#000000;stroke-width:0.26469076;stroke-linecap:butt;stroke-linejoin:miter;stroke-miterlimit:4;stroke-dasharray:0.79407225, 0.79407225;stroke-dashoffset:0;stroke-opacity:1"
       inkscape:export-xdpi="200"
       inkscape:export-ydpi="200" />
  </g>
</svg>
